PathFileType  4	(X/Y/Z) C:\Users\antoi\Documents\MyRepositories\mobilecap\ResultsAnalysis
DataRate	CameraRate	NumFrames	NumMarkers	Units	OrigDataRate	OrigDataStartFrame	OrigNumFrames
100.0	100.0	4	51	mm	100.0	1374	1831
Frame#	Time	r_knee			r_shank_antsup			r_ankle			r_calc			r_5meta			r_toe			L_knee			L_shank_antsup			L_ankle			L_calc			L_5meta			L_toe			r_sh2			r_sh3			r_sh4			L_sh2			L_sh3			r_thigh1			r_thigh2			r_thigh3			r_thigh4			r_thigh5			L_thigh1			L_thigh2			L_thigh3			L_thigh4			r.ASIS			r.PSIS			L.ASIS			L.PSIS			C7			R_Shoulder			L_Shoulder			R_Sternum			L_Sternum			R_humerus			R_elbow_med			R_elbow_lat			R_forearm			R_wrist_radius			R_wrist_ulna			L_humerus			L_elbow_med			L_elbow_lat			L_forearm			L_wrist_radius			L_wrist_ulna			R_HJC			L_HJC			R_HJC_reg			L_HJC_reg			
		X1	Y1	Z1	X2	Y2	Z2	X3	Y3	Z3	X4	Y4	Z4	X5	Y5	Z5	X6	Y6	Z6	X7	Y7	Z7	X8	Y8	Z8	X9	Y9	Z9	X10	Y10	Z10	X11	Y11	Z11	X12	Y12	Z12	X13	Y13	Z13	X14	Y14	Z14	X15	Y15	Z15	X16	Y16	Z16	X17	Y17	Z17	X18	Y18	Z18	X19	Y19	Z19	X20	Y20	Z20	X21	Y21	Z21	X22	Y22	Z22	X23	Y23	Z23	X24	Y24	Z24	X25	Y25	Z25	X26	Y26	Z26	X27	Y27	Z27	X28	Y28	Z28	X29	Y29	Z29	X30	Y30	Z30	X31	Y31	Z31	X32	Y32	Z32	X33	Y33	Z33	X34	Y34	Z34	X35	Y35	Z35	X36	Y36	Z36	X37	Y37	Z37	X38	Y38	Z38	X39	Y39	Z39	X40	Y40	Z40	X41	Y41	Z41	X42	Y42	Z42	X43	Y43	Z43	X44	Y44	Z44	X45	Y45	Z45	X46	Y46	Z46	X47	Y47	Z47	X48	Y48	Z48	X49	Y49	Z49	X50	Y50	Z50	X51	Y51	Z51	

1374	13.73000000	-194.55661	512.56533	-402.71887	-134.27156	420.14922	-407.46043	-281.52051	119.03975	-431.47188	-364.03780	72.62058	-478.51736	-175.42694	49.75855	-376.66269	-113.22863	79.76872	-434.99773	-202.62735	512.39489	-867.15745	-180.65777	433.02701	-888.19515	-284.64254	119.48269	-826.07154	-365.97143	72.41909	-764.14855	-179.54840	51.19801	-864.80652	-117.06582	80.82225	-805.74489	-174.89556	315.45148	-388.25995	-194.06895	449.27449	-370.70002	-248.90518	347.02318	-367.63148	-268.61740	453.02641	-880.70332	-282.55678	331.48968	-870.97780	-482.66096	630.56501	-440.97081	-379.40692	622.16087	-436.06538	-362.43575	569.47584	-394.01942	-495.08593	519.87522	-425.14390	-380.27863	517.39606	-407.24520	-458.91760	640.04218	-830.48397	-320.43168	629.90430	-841.78892	-470.88595	537.64932	-867.88829	-335.13522	522.37741	-879.94609	-473.14019	643.07019	-515.63493	-645.17793	697.74816	-574.20254	-494.49687	641.89613	-761.04567	-656.73186	702.07864	-679.57260	-134.26135	946.24391	-649.77561	-122.14268	846.53274	-501.84746	-142.70923	871.84535	-803.82651	-124.99597	792.64155	-627.03677	-132.54802	791.00422	-681.73229	-142.17871	744.03842	-395.54127	-248.89855	573.48464	-322.54930	-209.02971	627.15719	-258.98091	-56.23204	560.46212	-296.54482	23.32424	548.02123	-343.71892	12.93526	515.95401	-312.34355	-169.76726	812.49341	-912.27348	-231.80936	579.84550	-974.78204	-201.39147	635.68961	-1039.28529	-123.15048	627.94657	-1032.52740	36.59441	593.88989	-979.03811	33.73415	560.43250	-1002.69968	-578.55046	549.13534	-527.00184	-597.75938	556.12206	-732.95113	-549.34046	573.62848	-544.78768	-567.04700	580.26481	-706.26910	
1375	13.74000000	-188.80311	510.49341	-402.75621	-129.62438	418.57480	-407.01350	-281.04295	119.30004	-431.26236	-363.81028	72.74885	-478.44125	-175.38652	49.68510	-376.66023	-113.12552	79.27509	-435.23901	-196.38915	511.92857	-865.71572	-175.70961	431.70395	-887.06740	-284.24583	119.49730	-825.85345	-365.93111	72.45897	-764.15643	-179.49303	51.17565	-864.78566	-116.81916	80.28182	-805.50586	-171.54786	314.09887	-388.37252	-188.81738	448.14204	-370.42885	-245.14953	346.68921	-367.42194	-263.45181	453.24023	-880.21439	-279.10852	331.68735	-870.40095	-475.63062	632.51889	-440.93633	-372.72402	623.19214	-435.98799	-356.13960	570.21452	-393.92479	-489.06754	521.84268	-425.36904	-374.39725	518.56501	-407.08690	-451.83864	641.83719	-830.20930	-313.32074	630.17196	-841.46967	-464.70054	539.34781	-867.24951	-329.12884	522.69975	-878.95412	-467.73666	646.64613	-515.23037	-640.02410	701.40960	-574.01684	-488.51818	645.20937	-761.35098	-651.57589	705.72234	-679.59121	-131.67852	954.93807	-649.72495	-118.64098	854.90079	-501.40005	-139.60909	880.51809	-803.96345	-120.48141	801.46375	-626.85592	-128.09796	799.63935	-681.67540	-140.31189	752.50717	-394.46115	-248.63792	582.93489	-321.61289	-209.24005	636.71948	-257.83147	-56.19716	569.99442	-294.44792	23.75320	557.55398	-340.95094	13.05895	525.47834	-309.88359	-167.64746	821.22471	-912.85272	-231.43186	589.09526	-976.23428	-201.23309	645.26747	-1040.21759	-123.10964	637.58827	-1034.32071	36.90655	603.94293	-981.93393	33.89894	570.36411	-1005.35313	-573.26095	552.74715	-526.87693	-592.23057	559.61494	-732.85199	-543.84335	576.94651	-544.50377	-561.56034	583.56059	-706.42378	
1376	13.75000000	-182.86593	508.26009	-402.67768	-125.12852	416.74521	-406.80025	-280.57201	119.41920	-431.27070	-363.74726	72.80250	-478.48087	-175.32555	49.61780	-376.68646	-113.18911	78.86854	-435.26693	-190.33587	511.19570	-864.90475	-170.60150	430.20206	-885.38823	-283.84252	119.47739	-825.53412	-365.81553	72.52127	-764.55050	-179.45815	51.14519	-864.78885	-116.59340	79.83133	-805.41733	-168.17163	312.59900	-388.25058	-183.61267	446.85011	-369.99351	-241.50505	346.18209	-366.78973	-258.26870	453.30720	-879.41723	-275.66706	332.02133	-869.91580	-468.85118	634.57524	-440.42907	-365.82640	624.14689	-436.05732	-349.72807	571.04986	-393.61910	-483.16134	524.08931	-425.36207	-368.49227	519.73147	-406.91914	-444.61817	643.62176	-829.81046	-306.25972	630.63166	-841.25757	-458.43079	541.31545	-866.88638	-323.07139	523.03092	-878.02837	-462.33143	650.43489	-514.63568	-634.94174	705.38669	-573.82004	-482.49708	648.67501	-761.21831	-646.51200	709.49787	-679.58376	-129.42174	964.26356	-649.44806	-115.42760	863.98918	-500.96693	-136.66886	889.77851	-803.96571	-116.18732	810.98573	-626.70067	-123.76595	809.18011	-681.85387	-138.55613	761.67705	-393.25318	-248.74233	593.02673	-320.89178	-209.74049	647.09912	-256.74215	-56.54504	580.20067	-292.13273	23.76586	567.72202	-338.15059	12.77940	535.49368	-307.28165	-165.94919	830.51542	-913.42417	-231.67386	599.18090	-977.25591	-201.65948	655.52731	-1041.31852	-123.60846	647.73451	-1036.05372	36.57892	614.05839	-984.83674	33.17653	580.35405	-1008.13358	-568.07847	556.63662	-526.50822	-586.66311	563.24075	-732.52666	-538.37748	580.76809	-543.84108	-556.12205	587.07298	-706.04371	
1377	13.76000000	-176.72732	506.92920	-402.50255	-120.74039	414.35741	-407.24093	-280.22607	119.18486	-431.70227	-363.79705	72.82754	-478.69048	-175.27488	49.56047	-376.67865	-113.22189	78.48227	-435.19978	-184.82572	510.25229	-864.87886	-165.58381	428.99713	-883.87102	-283.39169	119.47098	-825.28606	-365.67670	72.62116	-765.18735	-179.44297	51.09498	-864.80946	-116.44390	79.52191	-805.45700	-164.97173	311.15541	-388.08649	-178.47561	445.50771	-369.57095	-237.61729	345.75714	-366.29886	-253.13458	453.22341	-878.35275	-272.22950	332.22713	-869.42374	-461.94190	636.83652	-439.81031	-358.70995	625.09845	-435.49008	-343.19090	571.91104	-393.31973	-477.31122	526.64477	-425.11648	-362.53844	520.79290	-406.95522	-437.17093	645.51164	-829.33991	-299.01407	631.18174	-840.76206	-452.16912	543.53707	-866.49913	-317.01598	523.39438	-877.05761	-456.99559	654.29545	-513.96882	-629.86150	709.53873	-573.59352	-476.72609	652.08643	-760.65245	-641.41705	713.43033	-679.44060	-127.43737	974.19900	-649.10118	-112.45416	873.85734	-500.38404	-133.90953	899.61057	-803.97232	-112.09143	821.20920	-626.56121	-119.61669	819.45809	-681.86906	-136.99804	771.48167	-391.85010	-249.33282	603.70347	-320.07342	-210.55846	658.10472	-255.75008	-57.29877	591.00728	-289.75897	23.31089	578.47410	-335.35939	12.03309	546.15166	-304.53656	-164.62828	840.35025	-913.86507	-232.72319	609.97719	-978.43706	-202.68381	666.39681	-1042.56013	-124.67493	658.29868	-1037.61336	35.70387	624.18416	-987.54571	31.81598	590.34394	-1010.91732	-563.09683	560.70720	-525.87915	-581.30531	566.91175	-731.94384	-533.08907	584.75798	-543.03947	-550.80382	590.72386	-705.30405	
